<?xml version="1.0" standalone="no"?>
<!DOCTYPE svg PUBLIC "-//W3C//DTD SVG 20010904//EN"
 "http://www.w3.org/TR/2001/REC-SVG-20010904/DTD/svg10.dtd">
<svg version="1.0" xmlns="http://www.w3.org/2000/svg"
 width="94.000000pt" height="94.000000pt" viewBox="0 0 94.000000 94.000000"
 preserveAspectRatio="xMidYMid meet">
<metadata>
Created by potrace 1.14, written by Peter Selinger 2001-2017
</metadata>
<g transform="translate(0.000000,94.000000) scale(0.100000,-0.100000)"
fill="#000000" stroke="none">
<path d="M459 848 c-13 -51 -17 -68 -18 -87 -1 -8 -8 -11 -21 -8 -11 3 -18 2
-16 -1 2 -4 -2 -13 -10 -20 -9 -8 -14 -9 -14 -2 0 6 -4 8 -10 5 -5 -3 -10 -1
-10 4 0 20 -39 11 -51 -11 -7 -13 -11 -25 -10 -28 1 -3 -14 -9 -33 -13 -20 -5
-36 -14 -36 -20 -3 -66 -13 -123 -23 -135 -8 -11 -12 -70 -12 -208 0 -186 1
-194 22 -215 42 -42 199 -56 291 -26 26 8 42 22 52 44 10 22 28 37 57 48 56
22 98 71 113 134 17 73 6 137 -31 174 -27 26 -35 29 -79 25 -44 -5 -49 -3 -61
21 -13 29 -15 36 -17 99 -2 36 -6 44 -29 55 -35 14 -44 27 -37 49 3 9 7 25 9
35 2 10 8 38 14 63 7 33 7 46 -2 52 -21 13 -26 9 -38 -34z m208 -396 c37 -24
38 -118 2 -178 -21 -35 -80 -69 -90 -53 -3 6 -5 57 -5 115 1 81 5 107 16 114
18 12 60 13 77 2z"/>
</g>
</svg>
